# Aspose.3D Wavefront OBJ Exporter
# Copyright 2004-2020 Aspose Pty Ltd.
# File created: 7/14/2020 7:48:08 AM


#
# object obj_44397431
#

v -21.66670036315917968 21.66670036315917968 0
v -21.66670036315917968 -21.66670036315917968 0
v -21.66670036315917968 -21.66670036315917968 3
v -21.66670036315917968 21.66670036315917968 3
v 21.66670036315917968 21.66670036315917968 0
v 21.66670036315917968 -21.66670036315917968 0
v 21.66670036315917968 21.66670036315917968 3
v 21.66670036315917968 -21.66670036315917968 3
v -3.73329997062683104 21.66670036315917968 1
v -5.000600140192546E-06 21.66670036315917968 1
v -3.73329997062683104 21.66670036315917968 3
v -5.000600140192546E-06 21.66670036315917968 3
v -5.000600140192546E-06 20.66670036315917968 1
v -5.000600140192546E-06 20.66670036315917968 3
v 20.66670036315917968 20.66670036315917968 1
v 20.66670036315917968 20.66670036315917968 3
v 20.66670036315917968 -20.66670036315917968 1
v 20.66670036315917968 -20.66670036315917968 3
v 17.43330001831054688 -20.66670036315917968 1
v 17.43330001831054688 -20.66670036315917968 3
v 17.43330001831054688 -12.19999980926513672 1
v 17.43330001831054688 -12.19999980926513672 3
v 13.19999980926513672 -12.19999980926513672 1
v 13.19999980926513672 -12.19999980926513672 3
v 13.19999980926513672 -8.96669960021972656 1
v 13.19999980926513672 -8.96669960021972656 3
v 16.93329429626464848 -8.96669960021972656 3
v 16.93329429626464848 -8.96669960021972656 1
v 16.93329429626464848 -7.9667000770568848 1
v 16.93329429626464848 -7.9667000770568848 3
v 8.96669960021972656 -7.9667000770568848 1
v 8.96669960021972656 -7.9667000770568848 3
v 8.96669960021972656 -4.23329496383666992 1
v 8.96669960021972656 -4.23329496383666992 3
v 7.9667000770568848 -4.23329496383666992 3
v 7.9667000770568848 -4.23329496383666992 1
v 7.9667000770568848 -7.9667000770568848 1
v 7.9667000770568848 -7.9667000770568848 3
v 4.73330020904541008 -7.9667000770568848 1
v 4.73330020904541008 -7.9667000770568848 3
v 4.73330020904541008 -0.5 1
v 4.73330020904541008 -0.5 3
v 8.96669960021972656 -0.5 1
v 8.96669960021972656 -0.5 3
v 8.96669960021972656 7.9667000770568848 1
v 8.96669960021972656 7.9667000770568848 3
v 12.19999980926513672 7.9667000770568848 3
v 12.19999980926513672 7.9667000770568848 1
v 12.19999980926513672 -4.23329496383666992 1
v 12.19999980926513672 -4.23329496383666992 3
v 13.19999980926513672 -4.23329496383666992 1
v 13.19999980926513672 -4.23329496383666992 3
v 13.19999980926513672 8.96669960021972656 1
v 13.19999980926513672 8.96669960021972656 3
v -3.73329997062683104 8.96669960021972656 1
v -3.73329997062683104 8.96669960021972656 3
v -3.73329997062683104 13.19999980926513672 1
v -3.73329997062683104 13.19999980926513672 3
v -12.19999980926513672 13.19999980926513672 1
v -12.19999980926513672 13.19999980926513672 3
v -12.19999980926513672 16.43330001831054688 1
v -12.19999980926513672 16.43330001831054688 3
v -8.46670532226562496 16.43330001831054688 1
v -8.46670532226562496 16.43330001831054688 3
v -8.46670532226562496 17.43330001831054688 3
v -8.46670532226562496 17.43330001831054688 1
v -13.19999980926513672 17.43330001831054688 1
v -13.19999980926513672 17.43330001831054688 3
v -13.19999980926513672 0.5 1
v -13.19999980926513672 0.5 3
v -16.43330001831054688 0.5 3
v -16.43330001831054688 0.5 1
v -16.43330001831054688 8.46670532226562496 1
v -16.43330001831054688 8.46670532226562496 3
v -17.43330001831054688 8.46670532226562496 3
v -17.43330001831054688 8.46670532226562496 1
v -17.43330001831054688 -0.5 1
v -17.43330001831054688 -0.5 3
v -4.2333049774169922 -0.5 1
v -4.2333049774169922 -0.5 3
v -4.2333049774169922 0.5 1
v -4.2333049774169922 0.5 3
v -12.19999980926513672 0.5 1
v -12.19999980926513672 0.5 3
v -12.19999980926513672 12.19999980926513672 1
v -12.19999980926513672 12.19999980926513672 3
v -4.73330020904541008 12.19999980926513672 1
v -4.73330020904541008 12.19999980926513672 3
v -4.73330020904541008 7.9667000770568848 1
v -4.73330020904541008 7.9667000770568848 3
v 7.9667000770568848 7.9667000770568848 1
v 7.9667000770568848 7.9667000770568848 3
v 7.9667000770568848 0.5 3
v 7.9667000770568848 0.5 1
v 3.73329997062683104 0.5 1
v 3.73329997062683104 0.5 3
v 3.73329997062683104 -12.19999980926513672 1
v 3.73329997062683104 -12.19999980926513672 3
v -3.73329997062683104 -12.19999980926513672 1
v -3.73329997062683104 -12.19999980926513672 3
v -3.73329997062683104 -8.96669960021972656 1
v -3.73329997062683104 -8.96669960021972656 3
v -5.000600140192546E-06 -8.96669960021972656 3
v -5.000600140192546E-06 -8.96669960021972656 1
v -5.000600140192546E-06 -7.9667000770568848 3
v -5.000600140192546E-06 -7.9667000770568848 1
v -13.19999980926513672 -7.9667000770568848 1
v -13.19999980926513672 -7.9667000770568848 3
v -13.19999980926513672 -12.19999980926513672 1
v -13.19999980926513672 -12.19999980926513672 3
v -16.93330574035644528 -12.19999980926513672 3
v -16.93330574035644528 -12.19999980926513672 1
v -16.93330574035644528 -13.19999980926513672 1
v -16.93330574035644528 -13.19999980926513672 3
v -13.19999980926513672 -13.19999980926513672 1
v -13.19999980926513672 -13.19999980926513672 3
v -13.19999980926513672 -16.93329429626464848 3
v -13.19999980926513672 -16.93329429626464848 1
v -12.19999980926513672 -16.93329429626464848 1
v -12.19999980926513672 -16.93329429626464848 3
v -12.19999980926513672 -8.96669960021972656 1
v -12.19999980926513672 -8.96669960021972656 3
v -4.73330020904541008 -8.96669960021972656 1
v -4.73330020904541008 -8.96669960021972656 3
v -4.73330020904541008 -13.19999980926513672 3
v -4.73330020904541008 -13.19999980926513672 1
v 4.73330020904541008 -13.19999980926513672 1
v 4.73330020904541008 -13.19999980926513672 3
v 4.73330020904541008 -8.96669960021972656 1
v 4.73330020904541008 -8.96669960021972656 3
v 12.19999980926513672 -8.96669960021972656 1
v 12.19999980926513672 -8.96669960021972656 3
v 12.19999980926513672 -13.19999980926513672 3
v 12.19999980926513672 -13.19999980926513672 1
v 16.43330001831054688 -13.19999980926513672 1
v 16.43330001831054688 -13.19999980926513672 3
v 16.43330001831054688 -20.66670036315917968 1
v 16.43330001831054688 -20.66670036315917968 3
v 4.23329496383666992 -21.66670036315917968 3
v 4.23329496383666992 -20.66670036315917968 3
v 4.23329496383666992 -20.66670036315917968 1
v 4.23329496383666992 -21.66670036315917968 1
v 0.5 -21.66670036315917968 1
v 0.5 -21.66670036315917968 3
v 0.5 -17.43330001831054688 1
v 0.5 -17.43330001831054688 3
v 12.69999504089355472 -17.43330001831054688 1
v 12.69999504089355472 -17.43330001831054688 3
v 12.69999504089355472 -16.43330001831054688 3
v 12.69999504089355472 -16.43330001831054688 1
v 8.96669960021972656 -16.43330001831054688 1
v 8.96669960021972656 -16.43330001831054688 3
v 8.96669960021972656 -12.69999504089355472 3
v 8.96669960021972656 -12.69999504089355472 1
v 7.9667000770568848 -12.69999504089355472 3
v 7.9667000770568848 -12.69999504089355472 1
v 7.9667000770568848 -16.43330001831054688 1
v 7.9667000770568848 -16.43330001831054688 3
v -7.9667000770568848 -16.43330001831054688 1
v -7.9667000770568848 -16.43330001831054688 3
v -7.9667000770568848 -12.69999504089355472 1
v -7.9667000770568848 -12.69999504089355472 3
v -8.96669960021972656 -12.69999504089355472 1
v -8.96669960021972656 -12.69999504089355472 3
v -8.96669960021972656 -17.43330001831054688 1
v -8.96669960021972656 -17.43330001831054688 3
v -0.5 -17.43330001831054688 1
v -0.5 -17.43330001831054688 3
v -0.5 -20.66670036315917968 1
v -0.5 -20.66670036315917968 3
v -16.43330001831054688 -20.66670036315917968 1
v -16.43330001831054688 -20.66670036315917968 3
v -3.73329997062683104 17.43330001831054688 3
v -3.73329997062683104 17.43330001831054688 1
v 0.5 17.43330001831054688 3
v 0.5 17.43330001831054688 1
v 0.5 13.19999980926513672 3
v 0.5 13.19999980926513672 1
v 16.43330001831054688 13.19999980926513672 3
v 16.43330001831054688 13.19999980926513672 1
v -16.43330001831054688 -16.93329429626464848 1
v -16.43330001831054688 -16.93329429626464848 3
v -17.43330001831054688 -16.93329429626464848 3
v -17.43330001831054688 -16.93329429626464848 1
v -17.43330001831054688 -20.66670036315917968 1
v -17.43330001831054688 -20.66670036315917968 3
v -20.66670036315917968 -20.66670036315917968 1
v -20.66670036315917968 -20.66670036315917968 3
v -20.66670036315917968 -8.96669960021972656 1
v -20.66670036315917968 -8.96669960021972656 3
v -16.43330001831054688 -8.96669960021972656 3
v -16.43330001831054688 -8.96669960021972656 1
v -16.43330001831054688 -4.73330020904541008 1
v -16.43330001831054688 -4.73330020904541008 3
v 0.5 -4.73330020904541008 1
v 0.5 -4.73330020904541008 3
v 0.5 3.73329997062683104 1
v 0.5 3.73329997062683104 3
v 4.23329496383666992 3.73329997062683104 3
v 4.23329496383666992 3.73329997062683104 1
v 4.23329496383666992 4.73330020904541008 1
v 4.23329496383666992 4.73330020904541008 3
v -7.9667000770568848 4.73330020904541008 1
v -7.9667000770568848 4.73330020904541008 3
v -7.9667000770568848 8.46670532226562496 1
v -7.9667000770568848 8.46670532226562496 3
v -8.96669960021972656 8.46670532226562496 3
v -8.96669960021972656 8.46670532226562496 1
v -8.96669960021972656 3.73329997062683104 1
v -8.96669960021972656 3.73329997062683104 3
v -0.5 3.73329997062683104 1
v -0.5 3.73329997062683104 3
v -0.5 -3.73329997062683104 1
v -0.5 -3.73329997062683104 3
v -17.43330001831054688 -3.73329997062683104 1
v -17.43330001831054688 -3.73329997062683104 3
v -17.43330001831054688 -7.9667000770568848 1
v -17.43330001831054688 -7.9667000770568848 3
v -20.66670036315917968 -7.9667000770568848 1
v -20.66670036315917968 -7.9667000770568848 3
v -20.66670036315917968 12.19999980926513672 3
v -20.66670036315917968 12.19999980926513672 1
v -16.43330001831054688 12.19999980926513672 3
v -16.43330001831054688 12.19999980926513672 1
v -16.43330001831054688 16.93330574035644528 1
v -16.43330001831054688 16.93330574035644528 3
v -17.43330001831054688 16.93330574035644528 1
v -17.43330001831054688 16.93330574035644528 3
v -17.43330001831054688 13.19999980926513672 1
v -17.43330001831054688 13.19999980926513672 3
v -20.66670036315917968 13.19999980926513672 1
v -20.66670036315917968 13.19999980926513672 3
v -20.66670036315917968 20.66670036315917968 3
v -20.66670036315917968 20.66670036315917968 1
v -4.73330020904541008 20.66670036315917968 1
v -4.73330020904541008 20.66670036315917968 3
v -4.73330020904541008 16.43330001831054688 1
v -4.73330020904541008 16.43330001831054688 3
v -0.5 16.43330001831054688 1
v -0.5 16.43330001831054688 3
v -0.5 12.19999980926513672 1
v -0.5 12.19999980926513672 3
v 16.43330001831054688 12.19999980926513672 1
v 16.43330001831054688 12.19999980926513672 3
v 16.43330001831054688 -4.23329496383666992 3
v 16.43330001831054688 -4.23329496383666992 1
v 17.43330001831054688 -4.23329496383666992 1
v 17.43330001831054688 -4.23329496383666992 3
v 16.43330001831054688 16.43330001831054688 3
v 16.43330001831054688 16.43330001831054688 1
v 4.23329496383666992 16.43330001831054688 3
v 4.23329496383666992 16.43330001831054688 1
v 17.43330001831054688 17.43330001831054688 1
v 4.23329496383666992 17.43330001831054688 1
v 17.43330001831054688 17.43330001831054688 3
v 4.23329496383666992 17.43330001831054688 3
# 256 vertices

vn -1 0 0
vn 0 0 -1
vn 1 0 0
vn 0 1 0
vn 0 -1 0
vn 0 0 1
# 6 vertex normals

g obj_44397431
s 1
f 1//1 2//1 3//1
f 3//1 4//1 1//1
f 1//2 5//2 6//2
f 6//2 2//2 1//2
f 5//3 7//3 8//3
f 8//3 6//3 5//3
f 1//4 9//4 10//4
f 4//4 11//4 9//4
f 7//4 5//4 10//4
f 9//4 1//4 4//4
f 10//4 5//4 1//4
f 10//4 12//4 7//4
f 12//1 10//1 13//1
f 13//1 14//1 12//1
f 15//5 16//5 14//5
f 14//5 13//5 15//5
f 17//1 18//1 16//1
f 16//1 15//1 17//1
f 17//4 19//4 20//4
f 20//4 18//4 17//4
f 21//3 22//3 20//3
f 20//3 19//3 21//3
f 23//4 24//4 22//4
f 22//4 21//4 23//4
f 24//3 23//3 25//3
f 25//3 26//3 24//3
f 27//5 26//5 25//5
f 25//5 28//5 27//5
f 27//3 28//3 29//3
f 29//3 30//3 27//3
f 29//4 31//4 32//4
f 32//4 30//4 29//4
f 33//3 34//3 32//3
f 32//3 31//3 33//3
f 35//4 34//4 33//4
f 33//4 36//4 35//4
f 36//1 37//1 38//1
f 38//1 35//1 36//1
f 37//4 39//4 40//4
f 40//4 38//4 37//4
f 41//3 42//3 40//3
f 40//3 39//3 41//3
f 43//5 44//5 42//5
f 42//5 41//5 43//5
f 44//3 43//3 45//3
f 45//3 46//3 44//3
f 47//5 46//5 45//5
f 45//5 48//5 47//5
f 49//1 50//1 47//1
f 47//1 48//1 49//1
f 50//5 49//5 51//5
f 51//5 52//5 50//5
f 53//3 54//3 52//3
f 52//3 51//3 53//3
f 55//4 56//4 54//4
f 54//4 53//4 55//4
f 57//3 58//3 56//3
f 56//3 55//3 57//3
f 57//4 59//4 60//4
f 60//4 58//4 57//4
f 61//3 62//3 60//3
f 60//3 59//3 61//3
f 63//5 64//5 62//5
f 62//5 61//5 63//5
f 65//3 64//3 63//3
f 63//3 66//3 65//3
f 67//4 68//4 65//4
f 65//4 66//4 67//4
f 68//1 67//1 69//1
f 69//1 70//1 68//1
f 71//4 70//4 69//4
f 69//4 72//4 71//4
f 73//3 74//3 71//3
f 71//3 72//3 73//3
f 75//4 74//4 73//4
f 73//4 76//4 75//4
f 77//1 78//1 75//1
f 75//1 76//1 77//1
f 79//5 80//5 78//5
f 78//5 77//5 79//5
f 80//3 79//3 81//3
f 81//3 82//3 80//3
f 82//4 81//4 83//4
f 83//4 84//4 82//4
f 83//3 85//3 86//3
f 86//3 84//3 83//3
f 87//5 88//5 86//5
f 86//5 85//5 87//5
f 89//1 90//1 88//1
f 88//1 87//1 89//1
f 90//5 89//5 91//5
f 91//5 92//5 90//5
f 93//1 92//1 91//1
f 91//1 94//1 93//1
f 94//4 95//4 96//4
f 96//4 93//4 94//4
f 95//1 97//1 98//1
f 98//1 96//1 95//1
f 98//4 97//4 99//4
f 99//4 100//4 98//4
f 100//3 99//3 101//3
f 101//3 102//3 100//3
f 103//5 102//5 101//5
f 101//5 104//5 103//5
f 105//3 103//3 104//3
f 104//3 106//3 105//3
f 107//4 108//4 105//4
f 105//4 106//4 107//4
f 108//1 107//1 109//1
f 109//1 110//1 108//1
f 111//4 110//4 109//4
f 109//4 112//4 111//4
f 111//1 112//1 113//1
f 113//1 114//1 111//1
f 114//5 113//5 115//5
f 115//5 116//5 114//5
f 117//1 116//1 115//1
f 115//1 118//1 117//1
f 117//5 118//5 119//5
f 119//5 120//5 117//5
f 121//3 122//3 120//3
f 120//3 119//3 121//3
f 122//5 121//5 123//5
f 123//5 124//5 122//5
f 125//1 124//1 123//1
f 123//1 126//1 125//1
f 127//5 128//5 125//5
f 125//5 126//5 127//5
f 127//3 129//3 130//3
f 130//3 128//3 127//3
f 130//5 129//5 131//5
f 131//5 132//5 130//5
f 133//1 132//1 131//1
f 131//1 134//1 133//1
f 135//5 136//5 133//5
f 133//5 134//5 135//5
f 135//1 137//1 138//1
f 138//1 136//1 135//1
f 46//6 92//6 93//6
f 56//6 58//6 88//6
f 56//6 90//6 92//6
f 93//6 44//6 46//6
f 92//6 46//6 56//6
f 88//6 90//6 56//6
f 60//6 86//6 88//6
f 78//6 84//6 70//6
f 70//6 84//6 86//6
f 20//6 22//6 136//6
f 8//6 18//6 20//6
f 88//6 58//6 60//6
f 86//6 60//6 70//6
f 20//6 138//6 8//6
f 8//6 7//6 16//6
f 130//6 132//6 38//6
f 70//6 71//6 78//6
f 80//6 82//6 84//6
f 96//6 98//6 40//6
f 16//6 18//6 8//6
f 12//6 14//6 16//6
f 38//6 40//6 130//6
f 35//6 38//6 32//6
f 65//6 68//6 62//6
f 68//6 70//6 60//6
f 75//6 78//6 71//6
f 84//6 78//6 80//6
f 98//6 130//6 40//6
f 105//6 124//6 102//6
f 124//6 125//6 100//6
f 139//6 8//6 138//6
f 16//6 7//6 12//6
f 24//6 133//6 136//6
f 132//6 26//6 38//6
f 38//6 26//6 32//6
f 52//6 54//6 47//6
f 54//6 56//6 46//6
f 60//6 62//6 68//6
f 93//6 42//6 44//6
f 98//6 128//6 130//6
f 100//6 102//6 124//6
f 108//6 122//6 124//6
f 136//6 138//6 20//6
f 136//6 22//6 24//6
f 30//6 32//6 26//6
f 32//6 34//6 35//6
f 46//6 47//6 54//6
f 71//6 74//6 75//6
f 125//6 128//6 98//6
f 40//6 42//6 96//6
f 120//6 110//6 116//6
f 114//6 116//6 110//6
f 124//6 105//6 108//6
f 122//6 108//6 110//6
f 24//6 132//6 133//6
f 132//6 24//6 26//6
f 62//6 64//6 65//6
f 42//6 93//6 96//6
f 110//6 111//6 114//6
f 110//6 120//6 122//6
f 26//6 27//6 30//6
f 98//6 100//6 125//6
f 102//6 103//6 105//6
f 47//6 50//6 52//6
f 138//6 140//6 139//6
f 116//6 117//6 120//6
f 139//1 140//1 141//1
f 141//1 142//1 139//1
f 141//4 140//4 138//4
f 138//4 137//4 141//4
f 6//5 142//5 143//5
f 8//5 139//5 142//5
f 3//5 2//5 143//5
f 142//5 6//5 8//5
f 143//5 2//5 6//5
f 143//5 144//5 3//5
f 145//3 146//3 144//3
f 144//3 143//3 145//3
f 147//5 148//5 146//5
f 146//5 145//5 147//5
f 149//3 148//3 147//3
f 147//3 150//3 149//3
f 149//4 150//4 151//4
f 151//4 152//4 149//4
f 153//3 152//3 151//3
f 151//3 154//3 153//3
f 155//4 153//4 154//4
f 154//4 156//4 155//4
f 155//1 156//1 157//1
f 157//1 158//1 155//1
f 157//4 159//4 160//4
f 160//4 158//4 157//4
f 161//3 162//3 160//3
f 160//3 159//3 161//3
f 162//4 161//4 163//4
f 163//4 164//4 162//4
f 165//1 166//1 164//1
f 164//1 163//1 165//1
f 165//5 167//5 168//5
f 168//5 166//5 165//5
f 169//1 170//1 168//1
f 168//1 167//1 169//1
f 169//4 171//4 172//4
f 172//4 170//4 169//4
f 9//3 11//3 173//3
f 173//3 174//3 9//3
f 174//4 173//4 175//4
f 175//4 176//4 174//4
f 176//3 175//3 177//3
f 177//3 178//3 176//3
f 177//4 179//4 180//4
f 180//4 178//4 177//4
f 181//3 182//3 172//3
f 172//3 171//3 181//3
f 183//4 182//4 181//4
f 181//4 184//4 183//4
f 184//1 185//1 186//1
f 186//1 183//1 184//1
f 187//4 188//4 186//4
f 186//4 185//4 187//4
f 188//3 187//3 189//3
f 189//3 190//3 188//3
f 191//5 190//5 189//5
f 189//5 192//5 191//5
f 193//3 194//3 191//3
f 191//3 192//3 193//3
f 195//5 196//5 194//5
f 194//5 193//5 195//5
f 196//3 195//3 197//3
f 197//3 198//3 196//3
f 199//5 198//5 197//5
f 197//5 200//5 199//5
f 199//3 200//3 201//3
f 201//3 202//3 199//3
f 203//4 204//4 202//4
f 202//4 201//4 203//4
f 205//3 206//3 204//3
f 204//3 203//3 205//3
f 207//4 206//4 205//4
f 205//4 208//4 207//4
f 208//1 209//1 210//1
f 210//1 207//1 208//1
f 210//5 209//5 211//5
f 211//5 212//5 210//5
f 213//1 214//1 212//1
f 212//1 211//1 213//1
f 215//4 216//4 214//4
f 214//4 213//4 215//4
f 217//1 218//1 216//1
f 216//1 215//1 217//1
f 218//4 217//4 219//4
f 219//4 220//4 218//4
f 221//3 220//3 219//3
f 219//3 222//3 221//3
f 223//5 221//5 222//5
f 222//5 224//5 223//5
f 225//3 226//3 223//3
f 223//3 224//3 225//3
f 226//4 225//4 227//4
f 227//4 228//4 226//4
f 229//1 230//1 228//1
f 228//1 227//1 229//1
f 230//4 229//4 231//4
f 231//4 232//4 230//4
f 233//3 232//3 231//3
f 231//3 234//3 233//3
f 235//5 236//5 233//5
f 233//5 234//5 235//5
f 237//1 238//1 236//1
f 236//1 235//1 237//1
f 239//5 240//5 238//5
f 238//5 237//5 239//5
f 241//1 242//1 240//1
f 240//1 239//1 241//1
f 242//5 241//5 243//5
f 243//5 244//5 242//5
f 245//1 244//1 243//1
f 243//1 246//1 245//1
f 245//5 246//5 247//5
f 247//5 248//5 245//5
f 249//1 250//1 180//1
f 180//1 179//1 249//1
f 250//5 249//5 251//5
f 251//5 252//5 250//5
f 17//6 247//6 29//6
f 29//6 247//6 246//6
f 246//6 243//6 53//6
f 246//6 51//6 29//6
f 29//6 28//6 17//6
f 15//6 253//6 247//6
f 247//6 17//6 15//6
f 15//6 176//6 254//6
f 254//6 253//6 15//6
f 176//6 178//6 252//6
f 43//6 41//6 36//6
f 252//6 254//6 176//6
f 180//6 250//6 252//6
f 36//6 33//6 43//6
f 39//6 37//6 36//6
f 252//6 178//6 180//6
f 13//6 174//6 176//6
f 235//6 225//6 67//6
f 36//6 41//6 39//6
f 48//6 45//6 43//6
f 31//6 29//6 51//6
f 17//6 28//6 21//6
f 23//6 21//6 28//6
f 9//6 174//6 13//6
f 176//6 15//6 13//6
f 67//6 66//6 235//6
f 67//6 225//6 224//6
f 43//6 49//6 48//6
f 51//6 49//6 31//6
f 28//6 25//6 23//6
f 53//6 51//6 246//6
f 241//6 55//6 53//6
f 224//6 222//6 76//6
f 224//6 73//6 67//6
f 49//6 33//6 31//6
f 13//6 10//6 9//6
f 53//6 243//6 241//6
f 66//6 63//6 57//6
f 66//6 237//6 235//6
f 234//6 227//6 225//6
f 21//6 19//6 17//6
f 57//6 241//6 66//6
f 225//6 235//6 234//6
f 231//6 229//6 227//6
f 59//6 57//6 63//6
f 241//6 57//6 55//6
f 227//6 234//6 231//6
f 241//6 239//6 237//6
f 33//6 49//6 43//6
f 237//6 66//6 241//6
f 69//6 67//6 73//6
f 76//6 73//6 224//6
f 112//6 107//6 192//6
f 189//6 187//6 113//6
f 195//6 193//6 107//6
f 63//6 61//6 59//6
f 222//6 219//6 77//6
f 219//6 217//6 215//6
f 85//6 208//6 205//6
f 113//6 112//6 189//6
f 193//6 192//6 107//6
f 95//6 94//6 200//6
f 95//6 197//6 195//6
f 77//6 76//6 222//6
f 215//6 77//6 219//6
f 213//6 211//6 81//6
f 205//6 87//6 85//6
f 83//6 209//6 208//6
f 107//6 106//6 195//6
f 195//6 106//6 95//6
f 215//6 79//6 77//6
f 81//6 79//6 213//6
f 208//6 85//6 83//6
f 209//6 83//6 81//6
f 200//6 197//6 95//6
f 94//6 91//6 201//6
f 89//6 203//6 201//6
f 79//6 215//6 213//6
f 81//6 211//6 209//6
f 201//6 200//6 94//6
f 201//6 91//6 89//6
f 99//6 97//6 104//6
f 97//6 95//6 106//6
f 205//6 89//6 87//6
f 89//6 205//6 203//6
f 106//6 104//6 97//6
f 192//6 189//6 112//6
f 115//6 113//6 181//6
f 73//6 72//6 69//6
f 113//6 184//6 181//6
f 187//6 185//6 184//6
f 121//6 163//6 161//6
f 104//6 101//6 99//6
f 184//6 113//6 187//6
f 171//6 169//6 119//6
f 161//6 123//6 121//6
f 119//6 165//6 163//6
f 181//6 118//6 115//6
f 119//6 118//6 171//6
f 163//6 121//6 119//6
f 169//6 167//6 165//6
f 118//6 181//6 171//6
f 165//6 119//6 169//6
f 159//6 157//6 127//6
f 134//6 131//6 154//6
f 131//6 129//6 156//6
f 141//6 137//6 147//6
f 161//6 126//6 123//6
f 127//6 126//6 159//6
f 156//6 154//6 131//6
f 127//6 157//6 156//6
f 145//6 143//6 141//6
f 135//6 150//6 147//6
f 126//6 161//6 159//6
f 156//6 129//6 127//6
f 147//6 137//6 135//6
f 134//6 151//6 150//6
f 154//6 151//6 134//6
f 150//6 135//6 134//6
f 147//6 145//6 141//6
f 143//6 142//6 141//6
f 112//6 109//6 107//6
f 240//6 242//6 177//6
f 244//6 179//6 177//6
f 177//6 242//6 244//6
f 255//6 249//6 179//6
f 179//6 244//6 255//6
f 256//6 251//6 249//6
f 248//6 255//6 244//6
f 249//6 255//6 256//6
f 236//6 238//6 173//6
f 173//6 238//6 240//6
f 190//6 191//6 218//6
f 3//6 188//6 190//6
f 177//6 175//6 240//6
f 240//6 175//6 173//6
f 190//6 220//6 3//6
f 3//6 172//6 186//6
f 173//6 11//6 236//6
f 11//6 4//6 233//6
f 186//6 188//6 3//6
f 183//6 186//6 172//6
f 233//6 236//6 11//6
f 4//6 221//6 232//6
f 172//6 182//6 183//6
f 144//6 170//6 172//6
f 232//6 233//6 4//6
f 221//6 223//6 230//6
f 146//6 152//6 158//6
f 155//6 158//6 152//6
f 172//6 3//6 144//6
f 146//6 168//6 170//6
f 164//6 166//6 160//6
f 160//6 166//6 168//6
f 230//6 232//6 221//6
f 226//6 228//6 230//6
f 152//6 153//6 155//6
f 148//6 149//6 152//6
f 170//6 144//6 146//6
f 168//6 146//6 160//6
f 230//6 223//6 226//6
f 4//6 3//6 220//6
f 152//6 146//6 148//6
f 160//6 162//6 164//6
f 220//6 221//6 4//6
f 218//6 220//6 190//6
f 214//6 216//6 194//6
f 194//6 216//6 218//6
f 158//6 160//6 146//6
f 218//6 191//6 194//6
f 198//6 212//6 214//6
f 194//6 196//6 214//6
f 198//6 204//6 212//6
f 207//6 210//6 204//6
f 214//6 196//6 198//6
f 210//6 212//6 204//6
f 202//6 204//6 198//6
f 204//6 206//6 207//6
f 244//6 245//6 248//6
f 198//6 199//6 202//6
f 251//1 256//1 254//1
f 254//1 252//1 251//1
f 254//4 256//4 255//4
f 255//4 253//4 254//4
f 253//3 255//3 248//3
f 248//3 247//3 253//3
#508 polygons

